<?xml version="1.0" encoding="utf-8"?>
<!-- Generator: Adobe Illustrator 25.0.1, SVG Export Plug-In . SVG Version: 6.00 Build 0)  -->
<svg version="1.1" id="Layer_1" xmlns="http://www.w3.org/2000/svg" xmlns:xlink="http://www.w3.org/1999/xlink" x="0px" y="0px"
	 viewBox="0 0 960 463" style="enable-background:new 0 0 960 463;" xml:space="preserve">
<style type="text/css">
	.st0{fill:#383838;}
	.st1{font-family:'Arial-BoldMT';}
	.st2{font-size:14px;}
	.st3{opacity:0.5;}
	.st4{fill:#231F20;stroke:#231F20;stroke-miterlimit:10;}
	.st5{fill:none;stroke:#000000;stroke-width:0.5;stroke-linecap:square;stroke-miterlimit:1;}
	.st6{fill:#231F20;}
	.st7{font-family:'ArialMT';}
	.st8{fill:#77787B;}
</style>
<image style="overflow:visible;enable-background:new    ;" width="1920" height="926" xlink:href="time-hkg.png"  transform="matrix(0.5 0 0 0.5 0 0)">
</image>
<g>
	<g>
		<text transform="matrix(1 0 0 1 651.4057 62.781)" class="st0 st1 st2">LUNES 11pm, 12 DE AGOSTO</text>
	</g>
</g>
<g class="st3">
	<text transform="matrix(1 0 0 1 132.2747 62.781)" class="st0 st1 st2">LUNES 11pm, 5 DE AGOSTO</text>
</g>
<path class="st4" d="M270,276.6c-1.4,0-2.5,1.1-2.5,2.5s1.1,2.5,2.5,2.5s2.5-1.1,2.5-2.5S271.4,276.6,270,276.6"/>
<g>
	<g>
		<g>
			<path class="st5" d="M204.4,293.2c-2.3-12.6-14.2-21.1-26.9-19.1"/>
			<g>
				<polygon points="206,291.1 205.6,290.9 204.3,293 202.3,291.6 202,292 204.5,293.7 				"/>
			</g>
		</g>
	</g>
	<path class="st4" d="M227.9,132.5c-1.4,0-2.5,1.1-2.5,2.5s1.1,2.5,2.5,2.5s2.5-1.1,2.5-2.5S229.3,132.5,227.9,132.5"/>
	<path class="st4" d="M418.4,176c-1.4,0-2.5,1.1-2.5,2.5s1.1,2.5,2.5,2.5s2.5-1.1,2.5-2.5S419.8,176,418.4,176"/>
	<path class="st4" d="M98.7,374.1c-1.4,0-2.5,1.1-2.5,2.5s1.1,2.5,2.5,2.5s2.5-1.1,2.5-2.5S100.1,374.1,98.7,374.1"/>
	<path class="st4" d="M314.2,157c-1.4,0-2.5,1.1-2.5,2.5s1.1,2.5,2.5,2.5s2.5-1.1,2.5-2.5S315.6,157,314.2,157"/>
	<text transform="matrix(1 0 0 1 235.3085 139.823)" class="st6 st7 st2">Beijing</text>
	<text transform="matrix(1 0 0 1 38.4949 380.7959)" class="st8 st7 st2">Bangkok</text>
	<g>
		<text transform="matrix(1 0 0 1 423.3054 183.0259)" class="st8 st7 st2">Tokio</text>
	</g>
	<text transform="matrix(1 0 0 1 100.6277 275.9622)" class="st6 st7 st2">Hong Kong</text>
</g>
<g>
	<g>
		<g>
			<path class="st5" d="M684.7,294.9c-1.2-6-7-10.1-13.1-9.1"/>
			<g>
				<polygon points="686.3,292.8 685.8,292.5 684.6,294.7 682.6,293.4 682.3,293.8 684.8,295.4 				"/>
			</g>
		</g>
	</g>
	<path class="st4" d="M706.4,130.5c-1.4,0-2.5,1.1-2.5,2.5s1.1,2.5,2.5,2.5s2.5-1.1,2.5-2.5S707.7,130.5,706.4,130.5"/>
	<path class="st4" d="M748.5,274.6c-1.4,0-2.5,1.1-2.5,2.5s1.1,2.5,2.5,2.5s2.5-1.1,2.5-2.5S749.9,274.6,748.5,274.6"/>
	<path class="st4" d="M577.2,372.1c-1.4,0-2.5,1.1-2.5,2.5s1.1,2.5,2.5,2.5s2.5-1.1,2.5-2.5S578.5,372.1,577.2,372.1"/>
	<path class="st4" d="M792.7,155c-1.4,0-2.5,1.1-2.5,2.5s1.1,2.5,2.5,2.5s2.5-1.1,2.5-2.5S794.1,155,792.7,155"/>
	<text transform="matrix(1 0 0 1 711.7814 137.823)" class="st6 st7 st2">Beijing</text>
	<g>
		<text transform="matrix(1 0 0 1 902.7782 181.0259)" class="st8 st7 st2">Tokio</text>
	</g>
	<text transform="matrix(1 0 0 1 752.3242 161.2849)" class="st8 st7 st2">Seoul</text>
	<text transform="matrix(1 0 0 1 516.9677 378.7959)" class="st8 st7 st2">Bangkok</text>
	<text transform="matrix(1 0 0 1 598.9548 288.6707)" class="st6 st7 st2">Hong Kong</text>
</g>
</svg>
