<?xml version="1.0" encoding="utf-8"?>
<!-- Generator: Adobe Illustrator 25.0.1, SVG Export Plug-In . SVG Version: 6.00 Build 0)  -->
<svg version="1.1" id="Layer_1" xmlns="http://www.w3.org/2000/svg" xmlns:xlink="http://www.w3.org/1999/xlink" x="0px" y="0px"
	 viewBox="0 0 480 397.5" style="enable-background:new 0 0 480 397.5;" xml:space="preserve">
<style type="text/css">
	.st0{opacity:0.5;}
	.st1{fill:#383838;}
	.st2{font-family:'Arial-BoldMT';}
	.st3{font-size:14px;}
	.st4{fill:none;stroke:#000000;stroke-width:0.5;stroke-linecap:square;stroke-miterlimit:1;}
	.st5{fill:#231F20;stroke:#231F20;stroke-miterlimit:10;}
	.st6{fill:#231F20;}
	.st7{font-family:'ArialMT';}
	.st8{fill:#77787B;}
</style>
<image style="overflow:visible;enable-background:new    ;" width="1920" height="926" xlink:href="time-hkg.png"  transform="matrix(0.5 0 0 0.5 0 -65.5388)">
</image>
<g>
	<g>
		<text transform="matrix(1 0 0 1 651.4057 -2.7578)" class="st1 st2 st3">LUNES 11pm, 12 DE AGOSTO</text>
	</g>
</g>
<g class="st0">
	<text transform="matrix(1 0 0 1 132.2747 -2.7578)" class="st1 st2 st3">LUNES 11pm, 5 DE AGOSTO</text>
</g>
<g>
	<g>
		<g>
			<path class="st4" d="M204.4,227.7c-2.3-12.6-14.2-21.1-26.9-19.1"/>
			<g>
				<polygon points="206,225.6 205.6,225.4 204.3,227.5 202.3,226.1 202,226.5 204.5,228.2 				"/>
			</g>
		</g>
	</g>
	<path class="st5" d="M227.9,67c-1.4,0-2.5,1.1-2.5,2.5s1.1,2.5,2.5,2.5s2.5-1.1,2.5-2.5S229.3,67,227.9,67"/>
	<path class="st5" d="M418.4,110.5c-1.4,0-2.5,1.1-2.5,2.5s1.1,2.5,2.5,2.5s2.5-1.1,2.5-2.5S419.8,110.5,418.4,110.5"/>
	<path class="st5" d="M98.7,308.6c-1.4,0-2.5,1.1-2.5,2.5s1.1,2.5,2.5,2.5s2.5-1.1,2.5-2.5S100.1,308.6,98.7,308.6"/>
	<path class="st5" d="M314.2,91.5c-1.4,0-2.5,1.1-2.5,2.5s1.1,2.5,2.5,2.5s2.5-1.1,2.5-2.5S315.6,91.5,314.2,91.5"/>
	<text transform="matrix(1 0 0 1 235.3085 74.2842)" class="st6 st7 st3">Beijing</text>
	<text transform="matrix(1 0 0 1 38.4949 315.2571)" class="st8 st7 st3">Bangkok</text>
	<g>
		<text transform="matrix(1 0 0 1 423.3054 117.4871)" class="st8 st7 st3">Tokio</text>
	</g>
	<text transform="matrix(1 0 0 1 100.6277 210.4234)" class="st6 st7 st3">Hong Kong</text>
</g>
<g>
	<g>
		<g>
			<path class="st4" d="M684.7,229.4c-1.2-6-7-10.1-13.1-9.1"/>
			<g>
				<polygon points="686.3,227.3 685.8,227 684.6,229.2 682.6,227.9 682.3,228.3 684.8,229.9 				"/>
			</g>
		</g>
	</g>
	<path class="st5" d="M706.4,65c-1.4,0-2.5,1.1-2.5,2.5s1.1,2.5,2.5,2.5s2.5-1.1,2.5-2.5S707.7,65,706.4,65"/>
	<path class="st5" d="M577.2,306.6c-1.4,0-2.5,1.1-2.5,2.5s1.1,2.5,2.5,2.5s2.5-1.1,2.5-2.5S578.5,306.6,577.2,306.6"/>
	<path class="st5" d="M792.7,89.5c-1.4,0-2.5,1.1-2.5,2.5s1.1,2.5,2.5,2.5s2.5-1.1,2.5-2.5S794.1,89.5,792.7,89.5"/>
	<text transform="matrix(1 0 0 1 711.7814 72.2842)" class="st6 st7 st3">Beijing</text>
	<text transform="matrix(1 0 0 1 752.3242 95.7461)" class="st8 st7 st3">Seoul</text>
	<text transform="matrix(1 0 0 1 516.9677 313.2571)" class="st8 st7 st3">Bangkok</text>
	<text transform="matrix(1 0 0 1 598.9548 223.1318)" class="st6 st7 st3">Hong Kong</text>
	<text transform="matrix(1 0 0 1 272.2732 97.4402)" class="st8 st7 st3">Seoul</text>
</g>
<g>
	<text transform="matrix(1 0 0 1 901.4568 107.4637)" class="st8 st7 st3">Tokio</text>
</g>
</svg>
