<?xml version="1.0" encoding="utf-8"?>
<!-- Generator: Adobe Illustrator 25.0.1, SVG Export Plug-In . SVG Version: 6.00 Build 0)  -->
<svg version="1.1" id="Layer_1" xmlns="http://www.w3.org/2000/svg" xmlns:xlink="http://www.w3.org/1999/xlink" x="0px" y="0px"
	 viewBox="0 0 339 447.8" style="enable-background:new 0 0 339 447.8;" xml:space="preserve">
<style type="text/css">
	.st0{fill:none;stroke:#C3C4C6;stroke-width:2;stroke-miterlimit:10;}
	.st1{font-family:'Arial-BoldMT';}
	.st2{font-size:16px;}
	.st3{opacity:0.5;fill:none;stroke:#FF513F;stroke-width:1.5;stroke-miterlimit:10;enable-background:new    ;}
	.st4{opacity:0.5;}
	.st5{font-family:'Arial-ItalicMT';}
	.st6{font-size:10px;}
	.st7{opacity:0.5;enable-background:new    ;}
	.st8{font-family:'ArialMT';}
	.st9{font-size:12px;}
	.st10{fill:none;stroke:url(#SVGID_1_);stroke-width:4;stroke-miterlimit:10;}
	.st11{fill:url(#SVGID_2_);}
	.st12{fill:url(#SVGID_3_);}
</style>
<image style="overflow:visible;enable-background:new    ;" width="1200" height="1497" xlink:href="hk-flights.png"  transform="matrix(0.2825 0 0 0.2825 0 6.9391)">
</image>
<path class="st0" d="M190.4,139.6l5.1-2.1l1.8-2.1l2.6-4.1l2.1-3.2l2.6-0.5l2.9,0.2l4,2.4l5-2.6l6.9-2.6l2.1-4.1l3.7-1.5l4.7,1.5
	l4.5-0.3l4.5,0.9l7.2,1.9"/>
<text transform="matrix(1 0 0 1 56.895 -11.3726)" class="st1" style="opacity:0.5;fill:#383838;enable-background:new    ; font-size:14px;">DEPARTURES FROM 1PM TO 3PM</text>
<g>
	<text transform="matrix(1 0 0 1 114.1998 196.5664)" class="st1 st2">Aeropuerto</text>
</g>
<path class="st3" d="M151.3,206.8l-42.6,15.8c-4.5,1.7-7,6.6-5.8,11.2l71.4,196.6"/>
<path class="st3" d="M153.2,206.8l-44.4,15.8c-4.5,1.7-7,6.6-5.8,11.2l73.3,196.6"/>
<path class="st3" d="M152.2,206.8l-44.4,15.8c-4.5,1.7-7,6.6-5.8,11.2l69.5,196.6"/>
<path class="st3" d="M152.2,207.7l-44.4,15.8c-4.5,1.7-7,6.6-5.8,11.2l67.6,195.6"/>
<path class="st3" d="M153.2,206.8l-44.4,15.8c-4.5,1.7-7,6.6-5.8,11.2l38.3,94.2c0.2,0.7,0.5,1.4,0.9,2l73.1,100.4"/>
<path class="st3" d="M152.2,207.3l-44.4,15.8c-4.5,1.7-7,6.6-5.8,11.2l65.6,195.6"/>
<g class="st4">
	<text transform="matrix(1 0 0 1 246.4213 377)" class="st5 st6">MAR DE</text>
	<text transform="matrix(1 0 0 1 237.8213 389)" class="st5 st6">CHINA SUR</text>
</g>
<text transform="matrix(1 0 0 1 141.8778 110.9927)" class="st7 st8 st9">SHENZHEN</text>
<text transform="matrix(1 0 0 1 182.2999 173.7319)" class="st7 st1 st2">HONG KONG</text>
<g class="st4">
	<g>
		
			<linearGradient id="SVGID_1_" gradientUnits="userSpaceOnUse" x1="125.4" y1="-5598.3057" x2="125.4" y2="-5553.2886" gradientTransform="matrix(1 0 0 -1 0 -5208)">
			<stop  offset="0" style="stop-color:#000000"/>
			<stop  offset="0.8777" style="stop-color:#000000;stop-opacity:0.1223"/>
			<stop  offset="1" style="stop-color:#000000;stop-opacity:0"/>
		</linearGradient>
		<line class="st10" x1="120.2" y1="345.8" x2="130.6" y2="381.5"/>
		<g>
			
				<linearGradient id="SVGID_2_" gradientUnits="userSpaceOnUse" x1="130.05" y1="-5598.3057" x2="130.05" y2="-5553.2886" gradientTransform="matrix(1 0 0 -1 0 -5208)">
				<stop  offset="0" style="stop-color:#000000"/>
				<stop  offset="0.8777" style="stop-color:#000000;stop-opacity:0.1223"/>
				<stop  offset="1" style="stop-color:#000000;stop-opacity:0"/>
			</linearGradient>
			<polygon class="st11" points="124.3,381.5 133,389.7 135.8,378.1 			"/>
		</g>
	</g>
</g>
<path class="st3" d="M152.3,207.8L107,234.6c-4.8,1.8-7.5,7-6.2,11.9l75.5,184.4"/>
<path class="st3" d="M151.3,207.8L106,234.6c-4.8,1.8-7.5,7-6.2,11.9l79.5,184.4"/>
<path class="st3" d="M150.3,207.8L105,234.6c-4.8,1.8-7.5,7-6.2,11.9l79.5,184.4"/>
<path class="st3" d="M152.3,207.8L107,234.6c-4.8,1.8-7.5,7-6.2,11.9l81.5,184.4"/>
<path class="st3" d="M150.3,207.8L105,234.6c-4.8,1.8-7.5,7-6.2,11.9l79.5,184.4"/>
<path class="st3" d="M150.3,207.8L105,234.6c-4.8,1.8-7.5,7-6.2,11.9l79.5,184.4"/>
<path class="st3" d="M152.3,207.8l-30.5,23.1c-2.3,1.8-3.8,4.4-3.9,7.3l-1.8,27.6c-0.1,1.6,0.2,3.2,0.8,4.6l69.5,160.4"/>
<path class="st3" d="M152.3,207.8L107,234.6c-4.8,1.8-7.5,7-6.2,11.9l73.5,184.4"/>
<linearGradient id="SVGID_3_" gradientUnits="userSpaceOnUse" x1="176.15" y1="-5643.2998" x2="176.15" y2="-5575.7998" gradientTransform="matrix(1 0 0 -1 0 -5208)">
	<stop  offset="0" style="stop-color:#FFFFFF"/>
	<stop  offset="1" style="stop-color:#FFFFFF;stop-opacity:0"/>
</linearGradient>
<rect x="114.2" y="367.8" class="st12" width="123.9" height="67.5"/>
<circle cx="152.3" cy="206.9" r="3"/>
</svg>
