<?xml version="1.0" encoding="utf-8"?>
<!-- Generator: Adobe Illustrator 25.0.1, SVG Export Plug-In . SVG Version: 6.00 Build 0)  -->
<svg version="1.1" id="Layer_1" xmlns="http://www.w3.org/2000/svg" xmlns:xlink="http://www.w3.org/1999/xlink" x="0px" y="0px"
	 viewBox="0 0 339 444" style="enable-background:new 0 0 339 444;" xml:space="preserve">
<style type="text/css">
	.st0{fill:none;stroke:#C3C4C6;stroke-width:2;stroke-miterlimit:10;}
	.st1{font-family:'Arial-BoldMT';}
	.st2{font-size:16px;}
	.st3{opacity:0.5;}
	.st4{font-family:'Arial-ItalicMT';}
	.st5{font-size:10px;}
	.st6{opacity:0.5;enable-background:new    ;}
	.st7{font-family:'ArialMT';}
	.st8{font-size:12px;}
	.st9{fill:url(#SVGID_1_);}
	.st10{fill:none;stroke:#000000;stroke-width:0.5;stroke-linecap:square;stroke-miterlimit:1;}
	.st11{fill:#383838;}
	.st12{font-size:14px;}
</style>
<image style="overflow:visible;enable-background:new    ;" width="1200" height="1497" xlink:href="hk-flights.png"  transform="matrix(0.2825 0 0 0.2825 0 4.1731)">
</image>
<path class="st0" d="M190.4,135.8l5.1-2.1l1.8-2.1l2.6-4.1l2.1-3.2l2.6-0.5l2.9,0.2l4,2.4l5-2.6l6.9-2.6l2.1-4.1l3.7-1.5l4.7,1.5
	l4.5-0.3l4.5,0.9l7.2,1.9"/>
<g>
	<text transform="matrix(1 0 0 1 103.7717 193.8004)" class="st1 st2">Aeropuerto</text>
</g>
<text transform="matrix(1 0 0 1 88.2583 -15.9124)" class="st1 st12" style="opacity:0.5;fill:#383838;enable-background:new    ;">DEPARTURES FROM 4PM</text>
<circle cx="152.3" cy="204.1" r="3"/>
<g class="st3">
	<text transform="matrix(1 0 0 1 246.4213 374.234)" class="st4 st5">MAR DE</text>
	<text transform="matrix(1 0 0 1 237.8213 386.234)" class="st4 st5">CHINA SUR</text>
</g>
<text transform="matrix(1 0 0 1 141.8778 108.2267)" class="st6 st7 st8">SHENZHEN</text>
<text transform="matrix(1 0 0 1 182.2999 170.966)" class="st6 st1 st2">HONG KONG</text>
<linearGradient id="SVGID_1_" gradientUnits="userSpaceOnUse" x1="147.15" y1="6628.0342" x2="147.15" y2="6594.2339" gradientTransform="matrix(1 0 0 1 0 -6200)">
	<stop  offset="0" style="stop-color:#FFFFFF"/>
	<stop  offset="1" style="stop-color:#FFFFFF;stop-opacity:0"/>
</linearGradient>
<rect x="85.2" y="394.2" class="st9" width="123.9" height="33.8"/>
<g>
	<g>
		<path class="st10" d="M156.4,216.4c3.8,21,23.6,35.1,44.8,31.8"/>
		<g>
			<polygon points="153.7,219.9 154.4,220.2 156.6,216.8 159.9,219.1 160.4,218.4 156.2,215.6 			"/>
		</g>
	</g>
</g>
<g>
	<text transform="matrix(1 0 0 1 208 253.234)" class="st11 st1 st12">No hay salidas</text>
</g>
</svg>
